<svg xmlns="http://www.w3.org/2000/svg" width="1400" height="360" viewBox="0 0 1400 360" role="img" aria-label="Furox — Scientific computing, mathematical modeling, AI verification">
  <defs>
    <linearGradient id="bg" x1="0" y1="0" x2="1" y2="1">
      <stop offset="0" stop-color="#05070b"/>
      <stop offset="0.58" stop-color="#0a0f1a"/>
      <stop offset="1" stop-color="#151a2b"/>
    </linearGradient>
    <radialGradient id="glow" cx="52%" cy="79%" r="42%">
      <stop offset="0" stop-color="#5d7fae" stop-opacity="0.25"/>
      <stop offset="0.45" stop-color="#263b5a" stop-opacity="0.10"/>
      <stop offset="1" stop-color="#0d1117" stop-opacity="0"/>
    </radialGradient>
    <filter id="soft" x="-30%" y="-30%" width="160%" height="160%">
      <feGaussianBlur stdDeviation="11"/>
    </filter>
  </defs>

  <rect width="1400" height="360" fill="url(#bg)"/>
  <rect width="1400" height="360" fill="url(#glow)"/>

  <g fill="#f4f7ff">
    <circle cx="83" cy="70" r="1.2" opacity="0.76"/><circle cx="142" cy="131" r="0.8" opacity="0.50"/>
    <circle cx="215" cy="48" r="1.5" opacity="0.90"/><circle cx="278" cy="92" r="0.9" opacity="0.58"/>
    <circle cx="351" cy="41" r="0.7" opacity="0.47"/><circle cx="420" cy="113" r="1.3" opacity="0.72"/>
    <circle cx="506" cy="61" r="0.8" opacity="0.54"/><circle cx="573" cy="32" r="1.6" opacity="0.87"/>
    <circle cx="647" cy="90" r="0.7" opacity="0.45"/><circle cx="748" cy="49" r="1.1" opacity="0.66"/>
    <circle cx="812" cy="101" r="0.8" opacity="0.50"/><circle cx="879" cy="37" r="1.4" opacity="0.81"/>
    <circle cx="952" cy="78" r="0.7" opacity="0.46"/><circle cx="1021" cy="48" r="1.1" opacity="0.67"/>
    <circle cx="1098" cy="121" r="0.9" opacity="0.55"/><circle cx="1175" cy="53" r="1.5" opacity="0.88"/>
    <circle cx="1250" cy="92" r="0.7" opacity="0.43"/><circle cx="1321" cy="38" r="1.0" opacity="0.63"/>
    <circle cx="54" cy="190" r="0.7" opacity="0.42"/><circle cx="181" cy="218" r="1.2" opacity="0.69"/>
    <circle cx="311" cy="173" r="0.8" opacity="0.50"/><circle cx="1072" cy="193" r="1.2" opacity="0.70"/>
    <circle cx="1218" cy="218" r="0.8" opacity="0.49"/><circle cx="1360" cy="181" r="1.0" opacity="0.61"/>
  </g>
  <g fill="#d9e8ff">
    <circle cx="126" cy="43" r="2.2" opacity="0.52"/><circle cx="1012" cy="91" r="2.0" opacity="0.48"/>
    <circle cx="1292" cy="139" r="1.8" opacity="0.44"/>
  </g>
  <g fill="#ffe7bd">
    <circle cx="327" cy="124" r="1.2" opacity="0.52"/><circle cx="1149" cy="151" r="1.4" opacity="0.57"/>
  </g>

  <ellipse cx="725" cy="302" rx="280" ry="42" fill="#5474a4" opacity="0.10" filter="url(#soft)"/>
  <path d="M0 306 C180 290 320 314 470 300 C650 283 760 306 930 292 C1110 278 1250 294 1400 286 L1400 360 L0 360 Z" fill="#0c1119" opacity="0.94"/>
  <path d="M0 319 C210 302 380 326 555 310 C720 296 860 319 1030 304 C1190 291 1290 303 1400 298" fill="none" stroke="#26354b" stroke-width="2" opacity="0.38"/>

  <text x="700" y="175" text-anchor="middle" font-family="Arial, Helvetica, sans-serif" font-size="88" font-weight="700" fill="#ffffff">Furox</text>
  <text x="700" y="226" text-anchor="middle" font-family="Arial, Helvetica, sans-serif" font-size="27" font-weight="500" fill="#e7edf6">Scientific computing · mathematical modeling · AI verification</text>
</svg>